<svg xmlns="http://www.w3.org/2000/svg" xmlns:xlink="http://www.w3.org/1999/xlink" version="1.1" x="0px" y="0px" viewBox="0 0 64 80" style="enable-background:new 0 0 64 64;" xml:space="preserve"><path d="M29,24.81c0,0.404,0.155,0.781,0.437,1.063c0.278,0.277,0.666,0.437,1.063,0.437H32c0.552,0,1,0.448,1,1V30h2.76v-0.5  c0-1.93,1.57-3.5,3.5-3.5c0.938,0,1.818,0.363,2.478,1.023c0.659,0.659,1.022,1.539,1.022,2.477V30h4.161  C47.604,28.823,48,27.459,48,26c0-3.365-2.079-6.239-5.021-7.421C42.762,15.463,40.172,13,37,13c-1.539,0-2.938,0.583-4,1.536v7.774  c0,0.552-0.448,1-1,1h-1.5C29.673,23.31,29,23.983,29,24.81z"/><path d="M17.079,30h4.681c0.552,0,1,0.448,1,1v1.5c0,0.827,0.673,1.5,1.5,1.5c0.404,0,0.781-0.155,1.062-0.437  c0.282-0.282,0.438-0.66,0.438-1.063V31c0-0.552,0.448-1,1-1H31v-1.69h-0.5c-0.937,0-1.817-0.363-2.477-1.022  C27.363,26.627,27,25.748,27,24.81c0-1.93,1.57-3.5,3.5-3.5H31v-6.774C29.938,13.583,28.539,13,27,13  c-3.172,0-5.762,2.463-5.979,5.579C18.079,19.761,16,22.635,16,26C16,27.459,16.396,28.823,17.079,30z"/><path d="M46.921,32H41.76c-0.552,0-1-0.448-1-1v-1.5c0-0.404-0.155-0.781-0.437-1.063S39.664,28,39.26,28  c-0.827,0-1.5,0.673-1.5,1.5V31c0,0.552-0.448,1-1,1H33v3.31h0.5c1.93,0,3.5,1.57,3.5,3.5c0,0.938-0.363,1.817-1.023,2.477  c-0.66,0.66-1.54,1.023-2.477,1.023H33v4.867C33.883,47.693,34.903,48,36,48c2.683,0,4.953-1.761,5.721-4.19  C45.311,43.022,48,39.827,48,36C48,34.541,47.604,33.177,46.921,32z"/><path d="M17.079,32C16.396,33.177,16,34.541,16,36c0,3.827,2.689,7.022,6.279,7.81C23.047,46.239,25.317,48,28,48  c1.097,0,2.117-0.307,3-0.823V41.31c0-0.552,0.448-1,1-1h1.5c0.397,0,0.785-0.16,1.063-0.438C34.845,39.591,35,39.214,35,38.81  c0-0.827-0.673-1.5-1.5-1.5H32c-0.552,0-1-0.448-1-1V32h-3.24v0.5c0,0.938-0.363,1.817-1.023,2.477  C26.078,35.637,25.198,36,24.26,36c-1.93,0-3.5-1.57-3.5-3.5V32H17.079z"/><path d="M53,16.215V17h2.5v-4.849l-1.916-2.874c-0.102-0.153-0.112-0.351-0.025-0.513S53.815,8.5,54,8.5h4v1h-3.066l1.482,2.223  C56.471,11.805,56.5,11.901,56.5,12v5H59v-0.79c0-1.57,0.521-3.112,1.546-4.301C61.452,10.86,62,9.495,62,8  c0-3.553-3.088-6.384-6.726-5.957c-2.621,0.308-4.793,2.388-5.199,4.996c-0.277,1.784,0.233,3.447,1.236,4.699  C52.341,13.024,53,14.567,53,16.215z"/><rect x="54" y="18" width="4" height="2"/><rect x="55" y="21" width="2" height="2"/><path d="M62.495,54.152l-2.525-1.578c-3.334-2.083-7.641-2.083-10.974,0l-2.525,1.578C46.178,54.334,46,54.655,46,55  s0.178,0.666,0.47,0.848l2.525,1.578c1.667,1.042,3.577,1.563,5.487,1.562c1.91,0,3.821-0.521,5.487-1.562l2.525-1.578  c0.292-0.183,0.47-0.503,0.47-0.848S62.787,54.334,62.495,54.152z M52.765,56.795c-0.947-0.197-1.868-0.539-2.71-1.065L48.887,55  l1.168-0.73h0c0.841-0.526,1.762-0.868,2.709-1.065C52.295,53.66,52,54.294,52,55C52,55.706,52.295,56.34,52.765,56.795z   M58.909,55.73c-0.827,0.517-1.732,0.856-2.662,1.055C56.711,56.331,57,55.7,57,55s-0.289-1.331-0.753-1.785  c0.93,0.199,1.835,0.538,2.663,1.055L60.078,55L58.909,55.73z"/><path d="M4,10h2l6,5l-1-5h3c1.105,0,2-0.895,2-2V4c0-1.105-0.895-2-2-2H4C2.895,2,2,2.895,2,4v4C2,9.105,2.895,10,4,10z M9,5h4v2H9  V5z M5,5h2v2H5V5z"/><path d="M8.5,62l5.626-5.626c1.165-1.165,1.165-3.054,0-4.22c-1.165-1.165-3.054-1.165-4.22,0L8.5,53.561l-1.407-1.406  c-1.165-1.165-3.054-1.165-4.22,0c-1.165,1.165-1.165,3.054,0,4.22L8.5,62z"/><rect x="45" y="4" width="2" height="2"/><rect x="41" y="4" width="2" height="2"/><rect x="37" y="4" width="2" height="2"/><rect x="37" y="8" width="2" height="2"/><rect x="20" y="4" width="2" height="2"/><rect x="24" y="4" width="2" height="2"/><rect x="28" y="4" width="2" height="2"/><rect x="28" y="8" width="2" height="2"/><rect x="28" y="51" width="2" height="2"/><rect x="28" y="55" width="2" height="2"/><rect x="28" y="59" width="2" height="2"/><rect x="24" y="59" width="2" height="2"/><rect x="20" y="59" width="2" height="2"/><rect x="36" y="51" width="2" height="2"/><rect x="36" y="55" width="2" height="2"/><rect x="36" y="59" width="2" height="2"/><rect x="40" y="59" width="2" height="2"/><rect x="44" y="59" width="2" height="2"/></svg>