<svg xmlns="http://www.w3.org/2000/svg" viewBox="0 0 128 160" x="0px" y="0px"><title>Empathy, mental health, healthcare, treatment, management, healp, mind, happy</title><g data-name="Layer 5"><path d="M95.831,98.053c-.273-4.3,1.029-10.247,3.662-13.663,10.5-13.626,15.158-25.432,12.96-39.962C108.891,20.88,92.26,8.407,69.266,7.227c-25.129-1.3-46.65,14.84-45.957,37.1.091,2.938.605,7.265.593,10.092-.023,10.042-8.712,14.167-8.879,17.363-.275,5.248,5.89,3.609,8.064,11.033,2.76,9.425-1.2,20.173,11.648,19.509,5.125-.206,13.454-2.195,17.023,1.124,2.276,2.116,4.109,11.352,4.824,15.439a2.368,2.368,0,0,0,2.337,1.958H97.488a2.369,2.369,0,0,0,2.282-3.029C98.487,113.4,96.269,104.966,95.831,98.053ZM69.737,80.207a8.543,8.543,0,0,1-6.21,0C32.807,68.333,25.905,46.382,35.886,31.982c6.357-9.177,24.727-13.192,30.746-1.767,6.02-11.425,24.39-7.41,30.747,1.767C107.36,46.382,100.458,68.333,69.737,80.207Z"/><path d="M63.82,39.99a3.119,3.119,0,0,1-2.05-2.93,3.015,3.015,0,0,1,.32-1.36,3.191,3.191,0,0,0,.32-1.38,3.128,3.128,0,0,0-4.44-2.82,3.066,3.066,0,0,1-1.32.3,3.113,3.113,0,0,1-2.94-2.1,3.123,3.123,0,0,0-5.88-.06,3.113,3.113,0,0,1-2.94,2.05,3.062,3.062,0,0,1-1.36-.31,3.1,3.1,0,0,0-4.18,4.12,3.043,3.043,0,0,1,.29,1.31,3.112,3.112,0,0,1-2.1,2.95,3.119,3.119,0,0,0-.05,5.88,3.1,3.1,0,0,1,1.73,4.29,3,3,0,0,0-.33,1.37,3.135,3.135,0,0,0,4.45,2.82,3.118,3.118,0,0,1,4.26,1.81,3.12,3.12,0,0,0,5.88.05,3.121,3.121,0,0,1,2.92-2.05,3.056,3.056,0,0,1,1.37.32,3.07,3.07,0,0,0,1.38.33,3.14,3.14,0,0,0,2.81-4.46,3.013,3.013,0,0,1-.3-1.3,3.126,3.126,0,0,1,2.11-2.95,3.12,3.12,0,0,0,.05-5.88ZM50.65,50.42a7.605,7.605,0,1,1,7.6-7.6A7.609,7.609,0,0,1,50.65,50.42Z"/><path d="M74.83,64.07a2.114,2.114,0,0,1-1.47-2.02,2.069,2.069,0,0,1,.17-.84,2.106,2.106,0,0,0-2.91-2.73,2.1,2.1,0,0,1-2.94-1.11,2.121,2.121,0,0,0-3.99.13,2.128,2.128,0,0,1-2.86,1.31,2.115,2.115,0,0,0-2.73,2.91,1.994,1.994,0,0,1,.25.96A2.158,2.158,0,0,1,57,64.67a2.1,2.1,0,0,0,.14,3.97,2.127,2.127,0,0,1,1.47,2.02,2.164,2.164,0,0,1-.18.85,2.065,2.065,0,0,0-.18.85,2.125,2.125,0,0,0,3.1,1.87,2.228,2.228,0,0,1,.97-.23,2.112,2.112,0,0,1,1.97,1.34,2.069,2.069,0,0,0,1.96,1.34,2.091,2.091,0,0,0,2.03-1.47,2.1,2.1,0,0,1,2.01-1.48,2.128,2.128,0,0,1,.85.18,2.2,2.2,0,0,0,.85.18A2.123,2.123,0,0,0,73.86,71a2.1,2.1,0,0,1,1.11-2.94,2.118,2.118,0,0,0-.14-3.99Zm-8.85,7.45a5.16,5.16,0,1,1,5.17-5.16A5.16,5.16,0,0,1,65.98,71.52Z"/><path d="M95.25,42.95a3.1,3.1,0,0,1,1.04-2.34,3.03,3.03,0,0,0,1.06-2.31,3.116,3.116,0,0,0-3.25-3.14h-.14a3.107,3.107,0,0,1-3.11-3.29,3.118,3.118,0,0,0-5.41-2.3,3.117,3.117,0,0,1-4.63-.04,3.038,3.038,0,0,0-2.31-1.05,3.1,3.1,0,0,0-3.14,3.25v.14a3.108,3.108,0,0,1-3.3,3.1c-.07,0-.14-.01-.2-.01a3.127,3.127,0,0,0-2.09,5.43,3.126,3.126,0,0,1-.04,4.62,3.01,3.01,0,0,0-1.06,2.3,3.121,3.121,0,0,0,3.26,3.15h.14a3.11,3.11,0,0,1,3.1,3.31v.19a3.116,3.116,0,0,0,5.41,2.1,3.09,3.09,0,0,1,2.3-1.01,3.128,3.128,0,0,1,2.34,1.05,3.014,3.014,0,0,0,2.3,1.06,3.119,3.119,0,0,0,3.14-3.26v-.15a3.119,3.119,0,0,1,3.3-3.1c.07,0,.14.01.2.01a3.125,3.125,0,0,0,2.1-5.42A3.106,3.106,0,0,1,95.25,42.95ZM83.01,50.42a7.605,7.605,0,1,1,7.6-7.6A7.609,7.609,0,0,1,83.01,50.42Z"/></g></svg>