<?xml version="1.0" encoding="UTF-8" standalone="no"?>
<svg
   xmlns:dc="http://purl.org/dc/elements/1.1/"
   xmlns:cc="http://creativecommons.org/ns#"
   xmlns:rdf="http://www.w3.org/1999/02/22-rdf-syntax-ns#"
   xmlns:svg="http://www.w3.org/2000/svg"
   xmlns="http://www.w3.org/2000/svg"
   xmlns:sodipodi="http://sodipodi.sourceforge.net/DTD/sodipodi-0.dtd"
   xmlns:inkscape="http://www.inkscape.org/namespaces/inkscape"
   viewBox="0 0 64 80"
   x="0px"
   y="0px"
   version="1.1"
   id="svg84"
   sodipodi:docname="noun_Geography_3468767.svg"
   inkscape:version="1.0.1 (1.0.1+r75)">
  <metadata
     id="metadata90">
    <rdf:RDF>
      <cc:Work
         rdf:about="">
        <dc:format>image/svg+xml</dc:format>
        <dc:type
           rdf:resource="http://purl.org/dc/dcmitype/StillImage" />
      </cc:Work>
    </rdf:RDF>
  </metadata>
  <defs
     id="defs88" />
  <sodipodi:namedview
     pagecolor="#ffffff"
     bordercolor="#666666"
     borderopacity="1"
     objecttolerance="10"
     gridtolerance="10"
     guidetolerance="10"
     inkscape:pageopacity="0"
     inkscape:pageshadow="2"
     inkscape:window-width="1920"
     inkscape:window-height="1016"
     id="namedview86"
     showgrid="false"
     inkscape:zoom="10.75"
     inkscape:cx="32"
     inkscape:cy="54.883721"
     inkscape:window-x="0"
     inkscape:window-y="27"
     inkscape:window-maximized="1"
     inkscape:current-layer="svg84" />
  <g
     id="g78">
    <path
       d="M33,59.9c2.4-.456,4.6-2.523,6.321-5.642A21.828,21.828,0,0,0,33,53.039Z"
       id="path2" />
    <path
       d="M43.868,56.488a21.826,21.826,0,0,0-2.633-1.444,17.585,17.585,0,0,1-2.891,4A21.86,21.86,0,0,0,43.868,56.488Z"
       id="path4" />
    <path
       d="M44.987,39a37.848,37.848,0,0,1-2.876,14.246,23.935,23.935,0,0,1,3.49,2A21.945,21.945,0,0,0,53.951,39Z"
       id="path6" />
    <path
       d="M45.918,9.647a2.059,2.059,0,0,0-.518-.068,2,2,0,1,0,.518.068Z"
       id="path8" />
    <path
       d="M33,39V51.039a23.836,23.836,0,0,1,7.21,1.418A36.012,36.012,0,0,0,42.987,39Z"
       id="path10" />
    <path
       d="M19.013,39H10.049A21.945,21.945,0,0,0,18.4,55.25a23.935,23.935,0,0,1,3.49-2A37.848,37.848,0,0,1,19.013,39Z"
       id="path12" />
    <path
       d="M47.471,3.852a9,9,0,0,0-11.024,6.364c-1.412,5.272,3.343,13.837,4.909,16.455,2.665-1.484,11.066-6.525,12.479-11.8A9.012,9.012,0,0,0,47.471,3.852Zm1.793,8.762a4,4,0,1,1-2.828-4.9A3.975,3.975,0,0,1,49.264,12.614Z"
       id="path14" />
    <path
       d="M33,22.968c.629-.028,1.255-.073,1.871-.153l.258,1.983c-.7.091-1.414.14-2.129.17V37h9.977a40.744,40.744,0,0,0-.7-6.81l1.963-.38A42.719,42.719,0,0,1,44.977,37h8.977c0-.087-.007-.174-.012-.261-.023-.4-.051-.8-.095-1.2-.019-.173-.048-.345-.071-.518q-.119-.882-.309-1.747c-.072-.33-.142-.659-.229-.984-.064-.238-.137-.472-.208-.707-.116-.38-.24-.757-.376-1.129-.065-.18-.129-.359-.2-.536a21.878,21.878,0,0,0-1.649-3.329c-.038-.062-.079-.123-.118-.184a21.891,21.891,0,0,0-1.727-2.374,50.091,50.091,0,0,1-7.507,4.856,1,1,0,0,1-1.293-.346,44.963,44.963,0,0,1-5.477-12.364c-.555-.07-1.115-.117-1.684-.143Z"
       id="path16" />
    <path
       d="M31,24.961a23.836,23.836,0,0,1-7.21-1.418A36.012,36.012,0,0,0,21.013,37H31Z"
       id="path18" />
    <path
       d="M31,39H21.013A36.012,36.012,0,0,0,23.79,52.457,23.836,23.836,0,0,1,31,51.039Z"
       id="path20" />
    <path
       d="M19.013,37a37.848,37.848,0,0,1,2.876-14.246,23.935,23.935,0,0,1-3.49-2A21.945,21.945,0,0,0,10.049,37Z"
       id="path22" />
    <path
       d="M31,16.1c-2.4.456-4.6,2.523-6.321,5.642A21.828,21.828,0,0,0,31,22.961Z"
       id="path24" />
    <path
       d="M25.656,16.959a21.86,21.86,0,0,0-5.524,2.553,21.826,21.826,0,0,0,2.633,1.444A17.585,17.585,0,0,1,25.656,16.959Z"
       id="path26" />
    <path
       d="M22.765,55.044a21.826,21.826,0,0,0-2.633,1.444,21.86,21.86,0,0,0,5.524,2.553A17.585,17.585,0,0,1,22.765,55.044Z"
       id="path28" />
    <path
       d="M31,59.9V53.039a21.828,21.828,0,0,0-6.321,1.22C26.4,57.378,28.6,59.445,31,59.9Z"
       id="path30" />
    <rect
       x="2"
       y="37"
       width="2"
       height="2"
       id="rect32" />
    <rect
       x="2.442"
       y="31.965"
       width="1.999"
       height="2"
       transform="translate(-29.62 30.637) rotate(-80.013)"
       id="rect34" />
    <rect
       x="3.749"
       y="27.082"
       width="2"
       height="2"
       transform="translate(-23.262 22.93) rotate(-69.981)"
       id="rect36" />
    <rect
       x="5.885"
       y="22.5"
       width="2"
       height="1.999"
       transform="translate(-16.908 17.709) rotate(-59.991)"
       id="rect38" />
    <rect
       x="8.784"
       y="18.359"
       width="2.001"
       height="2"
       transform="translate(-11.336 14.415) rotate(-50.012)"
       id="rect40" />
    <rect
       x="12.359"
       y="14.785"
       width="2.001"
       height="2"
       transform="translate(-7.02 12.276) rotate(-39.988)"
       id="rect42" />
    <rect
       x="16.5"
       y="11.886"
       width="2"
       height="1.999"
       transform="translate(-4.098 10.48) rotate(-30.009)"
       id="rect44" />
    <rect
       x="21.082"
       y="9.749"
       width="2"
       height="2"
       transform="translate(-2.346 8.209) rotate(-20.019)"
       id="rect46" />
    <rect
       x="25.965"
       y="8.441"
       width="1.999"
       height="2"
       transform="translate(-1.228 4.817) rotate(-9.982)"
       id="rect48" />
    <rect
       x="56.115"
       y="22.5"
       width="1.999"
       height="2"
       transform="translate(-4.097 31.715) rotate(-30.009)"
       id="rect50" />
    <rect
       x="58.251"
       y="27.082"
       width="2"
       height="2"
       transform="translate(-6.033 21.98) rotate(-20.019)"
       id="rect52" />
    <rect
       x="59.559"
       y="31.965"
       width="2"
       height="1.999"
       transform="translate(-4.797 10.996) rotate(-9.982)"
       id="rect54" />
    <rect
       x="60"
       y="37"
       width="2"
       height="2"
       id="rect56" />
    <rect
       x="59.559"
       y="42.036"
       width="1.999"
       height="2"
       transform="translate(7.673 95.213) rotate(-80.013)"
       id="rect58" />
    <rect
       x="58.251"
       y="46.919"
       width="2"
       height="2"
       transform="translate(-6.056 87.185) rotate(-69.981)"
       id="rect60" />
    <rect
       x="56.115"
       y="51.5"
       width="2"
       height="1.999"
       transform="translate(-16.912 75.702) rotate(-59.991)"
       id="rect62" />
    <rect
       x="53.215"
       y="55.641"
       width="2.001"
       height="2"
       transform="translate(-24.022 61.78) rotate(-50.012)"
       id="rect64" />
    <rect
       x="49.64"
       y="59.215"
       width="2.001"
       height="2"
       transform="translate(-26.855 46.623) rotate(-39.988)"
       id="rect66" />
    <rect
       x="12.359"
       y="59.215"
       width="2"
       height="2.001"
       transform="translate(-41.37 31.772) rotate(-50.03)"
       id="rect68" />
    <rect
       x="8.785"
       y="55.64"
       width="2"
       height="2.001"
       transform="translate(-34.099 19.518) rotate(-39.97)"
       id="rect70" />
    <rect
       x="5.886"
       y="51.5"
       width="1.999"
       height="2"
       transform="translate(-25.324 10.473) rotate(-29.995)"
       id="rect72" />
    <rect
       x="3.749"
       y="46.918"
       width="2"
       height="2"
       transform="translate(-16.117 4.521) rotate(-20.019)"
       id="rect74" />
    <rect
       x="2.441"
       y="42.036"
       width="2"
       height="1.999"
       transform="translate(-7.408 1.248) rotate(-9.982)"
       id="rect76" />
  </g>
</svg>
