<svg xmlns="http://www.w3.org/2000/svg" xmlns:xlink="http://www.w3.org/1999/xlink" version="1.1" id="Your_Icon" x="0px" y="0px" width="100px" height="100px" viewBox="0 0 100 100" enable-background="new 0 0 100 100" xml:space="preserve">
<polygon points="67.713,67.709 37.628,88.188 10.124,56.141 8.289,54.003 6,55.682 35.338,89.864 35.718,90.306 37.17,92   39.46,90.323 69.549,69.847 94.312,50.173 92.478,48.039 "/>
<path d="M66.416,63.372L38.913,31.327l24.253-19.302L90.67,44.07L66.416,63.372z M38.234,82.452L10.73,50.405l25.893-17.402  l27.501,32.048L38.234,82.452z M37.08,29.191L6.608,49.944l-0.002,0.002l31.168,36.32l28.185-19.08l2.289-1.677L94.794,44.53  L63.623,8.211L37.08,29.191z"/>
<polygon points="66.901,57.299 84.638,43.135 83.876,42.37 66.139,56.531 "/>
<polygon points="65.249,55.373 82.988,41.214 82.223,40.443 64.486,54.608 "/>
<polygon points="63.599,53.449 81.333,39.285 80.57,38.516 62.835,52.68 "/>
<polygon points="61.944,51.523 79.681,37.358 78.914,36.589 61.18,50.753 "/>
<polygon points="59.859,31.767 50.978,38.865 51.756,39.652 60.635,32.551 "/>
<polygon points="58.176,29.807 49.299,36.908 50.077,37.696 58.952,30.591 "/>
<polygon points="56.498,27.854 47.618,34.952 48.398,35.738 57.275,28.637 "/>
<polygon points="52.938,41.091 60.274,49.635 69.062,42.432 61.727,33.885 "/>
<polygon points="38.506,76.248 57.493,63.547 56.85,62.675 37.862,75.377 "/>
<polygon points="36.836,74.305 55.825,61.603 55.184,60.73 36.192,73.433 "/>
<polygon points="35.167,72.36 54.155,59.658 53.51,58.781 34.519,71.483 "/>
<polygon points="33.496,70.412 52.483,57.709 51.84,56.839 32.853,69.541 "/>
<polygon points="31.826,68.469 50.813,55.767 50.172,54.893 31.185,67.597 "/>
<polygon points="30.157,66.524 49.147,53.822 48.504,52.948 29.509,65.647 "/>
<polygon points="28.486,64.576 47.476,51.873 46.83,51.003 27.843,63.705 "/>
<polygon points="26.817,62.633 45.806,49.929 45.164,49.059 26.173,61.759 "/>
<polygon points="34.631,54.345 44.14,47.984 43.494,47.112 33.98,53.471 "/>
<polygon points="32.96,52.396 42.471,46.04 41.822,45.163 32.311,51.526 "/>
<polygon points="31.291,50.452 40.798,44.093 40.152,43.221 30.645,49.584 "/>
<polygon points="29.621,48.507 39.128,42.148 38.484,41.276 28.975,47.64 "/>
</svg>