<?xml version="1.0" encoding="UTF-8" standalone="no"?>
<svg
   xmlns:dc="http://purl.org/dc/elements/1.1/"
   xmlns:cc="http://creativecommons.org/ns#"
   xmlns:rdf="http://www.w3.org/1999/02/22-rdf-syntax-ns#"
   xmlns:svg="http://www.w3.org/2000/svg"
   xmlns="http://www.w3.org/2000/svg"
   xmlns:sodipodi="http://sodipodi.sourceforge.net/DTD/sodipodi-0.dtd"
   xmlns:inkscape="http://www.inkscape.org/namespaces/inkscape"
   version="1.1"
   x="0px"
   y="0px"
   viewBox="0 0 100 125"
   enable-background="new 0 0 100 100"
   xml:space="preserve"
   id="svg8"
   sodipodi:docname="noun_note_256145.svg"
   inkscape:version="1.0.1 (1.0.1+r75)"><metadata
     id="metadata14"><rdf:RDF><cc:Work
         rdf:about=""><dc:format>image/svg+xml</dc:format><dc:type
           rdf:resource="http://purl.org/dc/dcmitype/StillImage" /></cc:Work></rdf:RDF></metadata><defs
     id="defs12" /><sodipodi:namedview
     pagecolor="#ffffff"
     bordercolor="#666666"
     borderopacity="1"
     objecttolerance="10"
     gridtolerance="10"
     guidetolerance="10"
     inkscape:pageopacity="0"
     inkscape:pageshadow="2"
     inkscape:window-width="1920"
     inkscape:window-height="1016"
     id="namedview10"
     showgrid="false"
     inkscape:zoom="6.88"
     inkscape:cx="50"
     inkscape:cy="62.5"
     inkscape:window-x="0"
     inkscape:window-y="27"
     inkscape:window-maximized="1"
     inkscape:current-layer="svg8" /><path
     d="M69.1,59.3c2.6-2.6,5.1-5.1,7.7-7.7v5.1v28.5c0,5-1.7,6.7-3.8,6.7h-61c-2.1,0-3.8-1.7-3.8-3.8V27c0-2.1,1.7-3.8,5.6-3.8  h32.4h2.2c-1.8,1.8-3.6,3.6-5.4,5.4l-2.3,2.3H15.7v53.3h53.3V59.3z M91,20.4c0.5,1.2,0.7,2.5,1,3.7c-0.1,1-0.4,1.8-1.1,2.5  C76.7,40.8,62.5,54.9,48.4,69.1c-0.5,0.5-1.1,0.9-1.9,1c-6.1,1.3-12.2,2.6-18.3,3.9c-1.4,0.3-2.5-0.8-2.2-2.2  c1.3-6.2,2.6-12.3,3.9-18.5c0.1-0.6,0.5-1.2,0.9-1.7c4.1-4.1,8.1-8.2,12.2-12.3C53.1,29.3,63.2,19.2,73.2,9.1c0.7-0.7,1.6-1.1,2.5-1  c1.1,0.1,2.3,0.3,3.4,0.7C84.7,11,88.6,15,91,20.4z M44.4,66.2c-0.3-0.9-0.4-1.9-0.9-2.7c-1.7-3.2-4.2-5.7-7.5-7.3  c-0.9-0.5-1.9-0.8-3-0.6c-0.6,2.6-1.1,5.1-1.6,7.6c0,0,0,0,0,0c2.7,0.5,4.8,2.5,5.4,5.2c2.4-0.5,4.7-1,7.1-1.5  C44.4,66.9,44.5,66.7,44.4,66.2z"
     id="path2" /></svg>
