<?xml version="1.0" encoding="UTF-8" standalone="no"?>
<svg
   xmlns:dc="http://purl.org/dc/elements/1.1/"
   xmlns:cc="http://creativecommons.org/ns#"
   xmlns:rdf="http://www.w3.org/1999/02/22-rdf-syntax-ns#"
   xmlns:svg="http://www.w3.org/2000/svg"
   xmlns="http://www.w3.org/2000/svg"
   xmlns:sodipodi="http://sodipodi.sourceforge.net/DTD/sodipodi-0.dtd"
   xmlns:inkscape="http://www.inkscape.org/namespaces/inkscape"
   data-name="Layer 1"
   viewBox="0 0 100 125"
   x="0px"
   y="0px"
   version="1.1"
   id="svg12"
   sodipodi:docname="noun_place_3386653.svg"
   inkscape:version="1.0.1 (1.0.1+r75)">
  <metadata
     id="metadata18">
    <rdf:RDF>
      <cc:Work
         rdf:about="">
        <dc:format>image/svg+xml</dc:format>
        <dc:type
           rdf:resource="http://purl.org/dc/dcmitype/StillImage" />
      </cc:Work>
    </rdf:RDF>
  </metadata>
  <defs
     id="defs16" />
  <sodipodi:namedview
     pagecolor="#ffffff"
     bordercolor="#666666"
     borderopacity="1"
     objecttolerance="10"
     gridtolerance="10"
     guidetolerance="10"
     inkscape:pageopacity="0"
     inkscape:pageshadow="2"
     inkscape:window-width="1920"
     inkscape:window-height="1016"
     id="namedview14"
     showgrid="false"
     inkscape:zoom="6.88"
     inkscape:cx="50"
     inkscape:cy="62.628683"
     inkscape:window-x="0"
     inkscape:window-y="27"
     inkscape:window-maximized="1"
     inkscape:current-layer="svg12" />
  <title
     id="title2">travel</title>
  <path
     d="M50,5A25.37325,25.37325,0,0,0,24.6554,30.34454c0,18.45948,22.89166,43.85285,23.86621,44.92493a1.99881,1.99881,0,0,0,2.95672,0c.97455-1.07208,23.86621-26.46545,23.86621-44.92493A25.37323,25.37323,0,0,0,50,5Zm0,39.01624a13.67121,13.67121,0,1,1,13.6712-13.6717A13.68694,13.68694,0,0,1,50,44.01624Z"
     id="path4" />
  <path
     d="M94.502,94.26447a1.99832,1.99832,0,0,0,.40827-1.66517L87.91785,61.63287A1.99777,1.99777,0,0,0,85.961,60.038H68.11707c-.88984,1.38251-1.787,2.71845-2.67707,3.99567H84.3324l6.17,26.9707H9.49756l6.17-26.9707H34.56012c-.89-1.27722-1.78717-2.61316-2.67706-3.99567H14.039a1.99777,1.99777,0,0,0-1.95685,1.59491L5.08972,92.5993A1.99784,1.99784,0,0,0,7.04663,95H92.95337A1.9985,1.9985,0,0,0,94.502,94.26447Z"
     id="path6" />
</svg>
