<?xml version="1.0" encoding="UTF-8" standalone="no"?>
<svg
   xmlns:dc="http://purl.org/dc/elements/1.1/"
   xmlns:cc="http://creativecommons.org/ns#"
   xmlns:rdf="http://www.w3.org/1999/02/22-rdf-syntax-ns#"
   xmlns:svg="http://www.w3.org/2000/svg"
   xmlns="http://www.w3.org/2000/svg"
   xmlns:sodipodi="http://sodipodi.sourceforge.net/DTD/sodipodi-0.dtd"
   xmlns:inkscape="http://www.inkscape.org/namespaces/inkscape"
   version="1.1"
   x="0px"
   y="0px"
   viewBox="0 0 100 125"
   enable-background="new 0 0 100 100"
   xml:space="preserve"
   id="svg10"
   sodipodi:docname="noun_Time_3104327.svg"
   inkscape:version="1.0.1 (1.0.1+r75)"><metadata
     id="metadata16"><rdf:RDF><cc:Work
         rdf:about=""><dc:format>image/svg+xml</dc:format><dc:type
           rdf:resource="http://purl.org/dc/dcmitype/StillImage" /></cc:Work></rdf:RDF></metadata><defs
     id="defs14" /><sodipodi:namedview
     pagecolor="#ffffff"
     bordercolor="#666666"
     borderopacity="1"
     objecttolerance="10"
     gridtolerance="10"
     guidetolerance="10"
     inkscape:pageopacity="0"
     inkscape:pageshadow="2"
     inkscape:window-width="1920"
     inkscape:window-height="1016"
     id="namedview12"
     showgrid="false"
     inkscape:zoom="6.88"
     inkscape:cx="50"
     inkscape:cy="136.45645"
     inkscape:window-x="0"
     inkscape:window-y="27"
     inkscape:window-maximized="1"
     inkscape:current-layer="svg10" /><g
     id="g4"><path
       d="M78.127,84.614c0-19.952-22.392-25.716-22.392-34.614c0-8.898,22.392-14.662,22.392-34.614   c2.868,0,5.193-2.325,5.193-5.193C83.32,7.325,80.995,5,78.127,5H21.873c-2.868,0-5.193,2.325-5.193,5.193   c0,2.868,2.325,5.193,5.193,5.193c0,19.952,22.391,25.716,22.391,34.614c0,8.898-22.391,14.662-22.391,34.614   c-2.868,0-5.193,2.325-5.193,5.193c0,2.868,2.325,5.193,5.193,5.193h56.254c2.868,0,5.193-2.325,5.193-5.193   C83.32,86.939,80.995,84.614,78.127,84.614z"
       id="path2" /></g></svg>
