<svg xmlns="http://www.w3.org/2000/svg" id="workicon" class="worksvg" viewBox="0 0 128 160" x="0px" y="0px">
    <title>Work icon</title>
    <g transform="scale(0.1)" data-name="Work icon">
        <rect x="78.481" y="27.46" width="0.016" height="0.038"/>
        <rect x="93.786" y="24.046" width="10.247" height="10.247"/>
        <rect x="108.67" y="34.043" width="10.247" height="10.247"/>
        <rect x="100.754" y="89.627" width="10.247" height="10.247"/>
        <rect x="93.504" y="69.71" width="10.247" height="10.247"/>
        <rect x="83.67" y="83.21" width="10.247" height="10.247"/>
        <rect x="80.962" y="16.668" width="10.247" height="10.247"/>
        <rect x="94.42" y="46.252" width="10.247" height="10.247"/>
        <rect x="82.151" y="56.072" width="10.247" height="10.247"/>
        <polygon points="81.471 78.751 81.471 68.498 71.214 68.506 71.214 78.751 81.471 78.751"/>
        <path class="svgpath" d="M93.839,117.818a107.425,107.425,0,0,1-3.847-18.576H78.459V89H68.214V78.753H57.967V68.506H68.214l0-10.339H78.47v-10.2H88.713V37.718l-10.232-.011V27.5l-10.274-.006V17.245l10.259-.025V9.957a57.37,57.37,0,0,0-15.131-2.73c-25.129-1.3-46.65,14.84-45.957,37.1.091,2.938.605,7.265.593,10.092-.023,10.042-8.712,14.167-8.879,17.363-.275,5.248,5.89,3.609,8.064,11.033,2.76,9.425-1.2,20.173,11.648,19.509,5.125-.206,13.454-2.195,17.023,1.124,2.276,2.116,4.109,11.352,4.824,15.439a2.368,2.368,0,0,0,2.337,1.958H91.557A2.369,2.369,0,0,0,93.839,117.818ZM48.389,37.75H38.142V27.5H48.389Zm10.24-6.332H68.876V41.665H58.629ZM50.962,55.5V45.252H61.209V55.5Zm12.915,46.167H53.63V91.418H63.877Z"/>
    </g>
</svg>